#!OML:ASF F:\VICON\USERDATA\INSTALL\Justin_Nancy\Justin_Nancy.ASF
:FULLY-SPECIFIED
:DEGREES
112
root 0.369973 17.3473 -11.7346 3.75471 -5.44396 -5.49247
lowerback 5.39668 1.17245 4.0553
upperback 0.260206 1.91226 3.67971
thorax -2.75399 0.920852 1.37521
lowerneck -16.6917 -3.15772 -8.94602
upperneck 20.5211 -3.07385 4.65297
head 9.45264 -1.61803 2.69748
rclavicle 3.08116e-015 -1.98785e-014
rhumerus -20.3173 -5.36946 -79.8998
rradius 37.1205
rwrist 0.824136
rhand -14.8138 11.3366
rfingers 7.12502
rthumb 11.3443 -18.3366
lclavicle 3.08116e-015 -1.98785e-014
lhumerus -36.4922 13.6974 83.6922
lradius 22.5404
lwrist -13.3108
lhand -14.1431 27.3491
lfingers 7.12502
lthumb 11.9911 416.986
rfemur 11.0151 3.63246 31.4116
rtibia 8.11099
rfoot -12.1881 -6.18032
rtoes -0.811264
lfemur -33.6926 -6.6447 -10.7214
ltibia 21.3839
lfoot -12.2593 13.6832
ltoes -5.15795
113
root 0.378705 17.3426 -11.5883 3.86309 -5.3755 -5.43097
lowerback 5.32191 1.19308 4.03475
upperback 0.220935 1.93373 3.60743
thorax -2.7506 0.931263 1.31154
lowerneck -16.9443 -3.15911 -8.85332
upperneck 20.7228 -3.09168 4.69543
head 9.56995 -1.61393 2.69569
rclavicle 9.44227e-015 -3.97569e-015
rhumerus -20.3213 -5.74851 -79.9612
rradius 37.2324
rwrist 0.861572
rhand -14.9761 11.1318
rfingers 7.12502
rthumb 11.1878 -18.55
lclavicle 9.44227e-015 -3.97569e-015
lhumerus -36.4374 14.0506 83.3643
lradius 22.1201
lwrist -13.9615
lhand -14.1553 26.5311
lfingers 7.12502
lthumb 11.9793 416.168
rfemur 11.5479 3.67852 31.3147
rtibia 7.80925
rfoot -11.9562 -6.2572
rtoes -2.82938
lfemur -33.7612 -5.70619 -11.2826
ltibia 21.5424
lfoot -11.789 12.6848
ltoes -4.94017
114
root 0.387428 17.3293 -11.4335 3.86657 -5.25296 -5.54214
lowerback 5.42406 1.19173 4.16631
upperback 0.079312 1.955 3.60525
thorax -2.9501 0.936453 1.2308
lowerneck -16.7389 -3.14507 -8.84239
upperneck 20.7543 -3.12133 4.80272
head 9.54624 -1.61774 2.72925
rclavicle -1.57537e-014 -6.36111e-015
rhumerus -20.7934 -6.0199 -79.9237
rradius 37.6154
rwrist 0.715675
rhand -14.8346 10.7712
rfingers 7.12502
rthumb 11.3243 -18.903
lclavicle -1.57537e-014 -6.36111e-015
lhumerus -36.6636 14.5292 82.91
lradius 21.6816
lwrist -14.9468
lhand -13.8392 25.5407
lfingers 7.12502
lthumb 12.2842 415.16
rfemur 12.0555 3.6647 31.3693
rtibia 7.78823
rfoot -11.7689 -6.14612
rtoes -3.60659
lfemur -33.6756 -4.57377 -11.8143
ltibia 21.779
lfoot -11.2486 11.8679
ltoes -5.16354
115
root 0.399009 17.3204 -11.265 3.7733 -5.19781 -5.59685
lowerback 5.39293 1.15687 4.22179
upperback 0.0348294 1.91445 3.67168
thorax -2.97964 0.915248 1.27203
lowerneck -16.5019 -3.11307 -8.85966
upperneck 20.6921 -3.07259 4.71664
head 9.47614 -1.60817 2.70891
rclavicle -1.42131e-014 -1.59028e-015
rhumerus -21.022 -6.11382 -79.7931
rradius 37.6949
rwrist 0.752135
rhand -14.4144 10.7133
rfingers 7.12502
rthumb 11.7295 -18.9383
lclavicle -1.42131e-014 -1.59028e-015
lhumerus -36.9414 15.3442 82.5232
lradius 21.3453
lwrist -15.6363
lhand -14.1567 24.8505
lfingers 7.12502
lthumb 11.978 414.488
rfemur 12.636 3.70318 31.3278
rtibia 7.97674
rfoot -11.8499 -5.95524
rtoes -3.14285
lfemur -33.4022 -3.69341 -12.3342
ltibia 22.103
lfoot -10.9993 11.4768
ltoes -6.05574
116
root 0.4092 17.3125 -11.0942 3.63194 -5.33054 -5.44705
lowerback 5.30818 1.22019 4.04343
upperback 0.0849082 1.97892 3.66178
thorax -2.88515 0.951518 1.35855
lowerneck -16.5008 -3.09728 -8.79819
upperneck 20.724 -3.04442 4.61794
head 9.48254 -1.60158 2.66819
rclavicle -8.59744e-015 -2.38542e-014
rhumerus -21.0729 -6.42382 -79.6846
rradius 37.5805
rwrist 0.998024
rhand -14.2966 10.7571
rfingers 7.12502
rthumb 11.8431 -18.888
lclavicle -8.59744e-015 -2.38542e-014
lhumerus -37.0988 16.0449 82.1849
lradius 21.0734
lwrist -15.9481
lhand -14.508 24.4945
lfingers 7.12502
lthumb 11.6392 414.151
rfemur 13.1963 3.90313 31.1017
rtibia 8.40393
rfoot -11.8817 -5.86717
rtoes -5.01569
lfemur -33.0079 -3.15493 -12.8899
ltibia 22.5044
lfoot -10.5032 11.2975
ltoes -7.02065
117
root 0.422565 17.3009 -10.9284 3.48508 -5.4962 -5.23244
lowerback 5.37956 1.30562 3.8468
upperback 0.124915 2.08105 3.58678
thorax -2.88725 1.00485 1.38161
lowerneck -16.667 -3.13373 -8.71779
upperneck 20.8434 -3.0983 4.59342
head 9.55732 -1.62256 2.63947
rclavicle -5.81445e-015 1.82882e-014
rhumerus -21.0845 -6.83277 -79.6229
rradius 37.384
rwrist 1.28572
rhand -14.3694 11.044
rfingers 7.12502
rthumb 11.7729 -18.6051
lclavicle -5.81445e-015 1.82882e-014
lhumerus -37.2012 16.4909 81.9271
lradius 20.7494
lwrist -16.2705
lhand -14.5057 24.8752
lfingers 7.12502
lthumb 11.6415 414.532
rfemur 13.5736 4.12746 30.838
rtibia 9.10677
rfoot -11.9052 -6.02609
rtoes -9.20254
lfemur -32.5699 -2.98181 -13.3396
ltibia 22.9141
lfoot -10.1045 10.9211
ltoes -5.7333
118
root 0.436243 17.2951 -10.7589 3.25546 -5.73743 -5.17783
lowerback 5.50686 1.40043 3.79253
upperback 0.172182 2.20889 3.56566
thorax -2.91059 1.06897 1.37757
lowerneck -16.6801 -3.20068 -8.78237
upperneck 20.9203 -3.21562 4.76191
head 9.59916 -1.66418 2.69455
rclavicle 1.2275e-014 1.66979e-014
rhumerus -21.2528 -7.00322 -79.569
rradius 37.4163
rwrist 1.25701
rhand -14.4663 11.1058
rfingers 7.12502
rthumb 11.6795 -18.5487
lclavicle 1.2275e-014 1.66979e-014
lhumerus -37.3072 16.6441 81.8174
lradius 20.5317
lwrist -16.3706
lhand -13.8558 25.9443
lfingers 7.12502
lthumb 12.2682 415.564
rfemur 14.0295 4.41783 30.7411
rtibia 9.8342
rfoot -11.9437 -6.09797
rtoes -11.7921
lfemur -32.0046 -2.60382 -13.6955
ltibia 23.3716
lfoot -9.63714 10.3372
ltoes -4.40509
